<mxfile host="app.diagrams.net" agent="Mozilla/5.0 (X11; Linux x86_64) AppleWebKit/537.36 (KHTML, like Gecko) Chrome/130.0.0.0 Safari/537.36" version="26.0.16">
  <diagram name="Page-1" id="ySgdtH5quH_D17T5HWRh">
    <mxGraphModel dx="683" dy="355" grid="1" gridSize="10" guides="1" tooltips="1" connect="1" arrows="1" fold="1" page="1" pageScale="1" pageWidth="850" pageHeight="1100" math="0" shadow="0">
      <root>
        <mxCell id="0" />
        <mxCell id="1" parent="0" />
        <mxCell id="jY4y-Oz1SoG92Mcd8qfM-1" value="portal-alma.lan" style="whiteSpace=wrap;html=1;aspect=fixed;" vertex="1" parent="1">
          <mxGeometry x="200" y="290" width="100" height="100" as="geometry" />
        </mxCell>
        <mxCell id="jY4y-Oz1SoG92Mcd8qfM-12" style="edgeStyle=orthogonalEdgeStyle;rounded=0;orthogonalLoop=1;jettySize=auto;html=1;exitX=0;exitY=0.5;exitDx=0;exitDy=0;entryX=1;entryY=0.5;entryDx=0;entryDy=0;" edge="1" parent="1" source="jY4y-Oz1SoG92Mcd8qfM-2" target="jY4y-Oz1SoG92Mcd8qfM-1">
          <mxGeometry relative="1" as="geometry" />
        </mxCell>
        <mxCell id="jY4y-Oz1SoG92Mcd8qfM-2" value="server-alma.lan" style="whiteSpace=wrap;html=1;aspect=fixed;" vertex="1" parent="1">
          <mxGeometry x="410" y="290" width="100" height="100" as="geometry" />
        </mxCell>
        <mxCell id="jY4y-Oz1SoG92Mcd8qfM-5" value=":7443/arcgis" style="text;html=1;align=center;verticalAlign=middle;resizable=0;points=[];autosize=1;strokeColor=none;fillColor=none;" vertex="1" parent="1">
          <mxGeometry x="200" y="230" width="90" height="30" as="geometry" />
        </mxCell>
        <mxCell id="jY4y-Oz1SoG92Mcd8qfM-6" value=":6443/arcgis" style="text;html=1;align=center;verticalAlign=middle;resizable=0;points=[];autosize=1;strokeColor=none;fillColor=none;" vertex="1" parent="1">
          <mxGeometry x="415" y="230" width="90" height="30" as="geometry" />
        </mxCell>
        <mxCell id="jY4y-Oz1SoG92Mcd8qfM-10" value=":443/arcgis" style="text;html=1;align=center;verticalAlign=middle;resizable=0;points=[];autosize=1;strokeColor=none;fillColor=none;" vertex="1" parent="1">
          <mxGeometry x="205" y="258" width="80" height="30" as="geometry" />
        </mxCell>
        <mxCell id="jY4y-Oz1SoG92Mcd8qfM-11" value=":443/arcgis" style="text;html=1;align=center;verticalAlign=middle;resizable=0;points=[];autosize=1;strokeColor=none;fillColor=none;" vertex="1" parent="1">
          <mxGeometry x="420" y="258" width="80" height="30" as="geometry" />
        </mxCell>
        <mxCell id="jY4y-Oz1SoG92Mcd8qfM-13" value="" style="endArrow=none;dashed=1;html=1;dashPattern=1 3;strokeWidth=2;rounded=0;" edge="1" parent="1">
          <mxGeometry width="50" height="50" relative="1" as="geometry">
            <mxPoint x="200" y="220" as="sourcePoint" />
            <mxPoint x="520" y="220" as="targetPoint" />
          </mxGeometry>
        </mxCell>
        <mxCell id="jY4y-Oz1SoG92Mcd8qfM-14" value="DMZ" style="edgeLabel;html=1;align=center;verticalAlign=middle;resizable=0;points=[];" vertex="1" connectable="0" parent="jY4y-Oz1SoG92Mcd8qfM-13">
          <mxGeometry x="-0.0208" y="-2" relative="1" as="geometry">
            <mxPoint as="offset" />
          </mxGeometry>
        </mxCell>
        <mxCell id="jY4y-Oz1SoG92Mcd8qfM-21" style="edgeStyle=orthogonalEdgeStyle;rounded=0;orthogonalLoop=1;jettySize=auto;html=1;exitX=1;exitY=0.75;exitDx=0;exitDy=0;" edge="1" parent="1" source="jY4y-Oz1SoG92Mcd8qfM-15" target="jY4y-Oz1SoG92Mcd8qfM-6">
          <mxGeometry relative="1" as="geometry" />
        </mxCell>
        <mxCell id="jY4y-Oz1SoG92Mcd8qfM-22" style="edgeStyle=orthogonalEdgeStyle;rounded=0;orthogonalLoop=1;jettySize=auto;html=1;exitX=0;exitY=0.75;exitDx=0;exitDy=0;" edge="1" parent="1" source="jY4y-Oz1SoG92Mcd8qfM-15" target="jY4y-Oz1SoG92Mcd8qfM-5">
          <mxGeometry relative="1" as="geometry" />
        </mxCell>
        <mxCell id="jY4y-Oz1SoG92Mcd8qfM-15" value="imhpa.lan" style="whiteSpace=wrap;html=1;aspect=fixed;" vertex="1" parent="1">
          <mxGeometry x="300" y="60" width="110" height="110" as="geometry" />
        </mxCell>
        <mxCell id="jY4y-Oz1SoG92Mcd8qfM-18" value=":443/server" style="text;html=1;align=center;verticalAlign=middle;resizable=0;points=[];autosize=1;strokeColor=none;fillColor=none;" vertex="1" parent="1">
          <mxGeometry x="420" y="120" width="80" height="30" as="geometry" />
        </mxCell>
        <mxCell id="jY4y-Oz1SoG92Mcd8qfM-20" value=":443/portal" style="text;html=1;align=center;verticalAlign=middle;resizable=0;points=[];autosize=1;strokeColor=none;fillColor=none;" vertex="1" parent="1">
          <mxGeometry x="200" y="120" width="80" height="30" as="geometry" />
        </mxCell>
      </root>
    </mxGraphModel>
  </diagram>
</mxfile>
